<mxfile host="app.diagrams.net" modified="2023-10-13T15:32:49.399Z" agent="Mozilla/5.0 (Windows NT 10.0; Win64; x64) AppleWebKit/537.36 (KHTML, like Gecko) Chrome/118.0.0.0 Safari/537.36" etag="I16htHYyY0mDLrEhZL8l" version="22.0.4" type="github">
  <diagram id="R2lEEEUBdFMjLlhIrx00" name="Page-1">
    <mxGraphModel dx="1290" dy="574" grid="1" gridSize="10" guides="1" tooltips="1" connect="1" arrows="1" fold="1" page="1" pageScale="1" pageWidth="850" pageHeight="1100" math="0" shadow="0" extFonts="Permanent Marker^https://fonts.googleapis.com/css?family=Permanent+Marker">
      <root>
        <mxCell id="0" />
        <mxCell id="1" parent="0" />
        <mxCell id="XE0a3KAdDkCExp548i4T-1" value="Empresa" style="swimlane;childLayout=stackLayout;horizontal=1;startSize=50;horizontalStack=0;rounded=1;fontSize=14;fontStyle=0;strokeWidth=2;resizeParent=0;resizeLast=1;shadow=0;dashed=0;align=center;arcSize=4;whiteSpace=wrap;html=1;" vertex="1" parent="1">
          <mxGeometry x="35" y="160" width="145" height="140" as="geometry" />
        </mxCell>
        <mxCell id="XE0a3KAdDkCExp548i4T-2" value="&lt;font style=&quot;font-size: 14px;&quot;&gt;&lt;b&gt;+codigo_interno: int&lt;/b&gt;&lt;/font&gt;&lt;br&gt;+cif&lt;br&gt;+nombre&lt;br&gt;+direccion&lt;br&gt;+telefono" style="align=left;strokeColor=none;fillColor=none;spacingLeft=4;fontSize=12;verticalAlign=top;resizable=0;rotatable=0;part=1;html=1;" vertex="1" parent="XE0a3KAdDkCExp548i4T-1">
          <mxGeometry y="50" width="145" height="90" as="geometry" />
        </mxCell>
        <mxCell id="XE0a3KAdDkCExp548i4T-4" value="Proyecto" style="swimlane;childLayout=stackLayout;horizontal=1;startSize=50;horizontalStack=0;rounded=1;fontSize=14;fontStyle=0;strokeWidth=2;resizeParent=0;resizeLast=1;shadow=0;dashed=0;align=center;arcSize=4;whiteSpace=wrap;html=1;" vertex="1" parent="1">
          <mxGeometry x="225" y="180" width="160" height="120" as="geometry" />
        </mxCell>
        <mxCell id="XE0a3KAdDkCExp548i4T-5" value="&lt;font style=&quot;font-size: 14px;&quot;&gt;&lt;b&gt;+id-proyecto: int&lt;/b&gt;&lt;/font&gt;&lt;br&gt;+fecha_inicio&lt;br&gt;+fecha_fin&lt;br&gt;+fecha_prevista" style="align=left;strokeColor=none;fillColor=none;spacingLeft=4;fontSize=12;verticalAlign=top;resizable=0;rotatable=0;part=1;html=1;" vertex="1" parent="XE0a3KAdDkCExp548i4T-4">
          <mxGeometry y="50" width="160" height="70" as="geometry" />
        </mxCell>
        <mxCell id="XE0a3KAdDkCExp548i4T-6" value="" style="shape=link;html=1;rounded=0;entryX=0;entryY=0.25;entryDx=0;entryDy=0;exitX=1;exitY=0;exitDx=0;exitDy=0;" edge="1" parent="1" source="XE0a3KAdDkCExp548i4T-2" target="XE0a3KAdDkCExp548i4T-4">
          <mxGeometry width="100" relative="1" as="geometry">
            <mxPoint x="155" y="210" as="sourcePoint" />
            <mxPoint x="255" y="210" as="targetPoint" />
          </mxGeometry>
        </mxCell>
        <mxCell id="XE0a3KAdDkCExp548i4T-7" value="Trabajador" style="swimlane;childLayout=stackLayout;horizontal=1;startSize=50;horizontalStack=0;rounded=1;fontSize=14;fontStyle=0;strokeWidth=2;resizeParent=0;resizeLast=1;shadow=0;dashed=0;align=center;arcSize=4;whiteSpace=wrap;html=1;" vertex="1" parent="1">
          <mxGeometry x="655" y="250" width="165" height="130" as="geometry" />
        </mxCell>
        <mxCell id="XE0a3KAdDkCExp548i4T-8" value="&lt;b&gt;&lt;font style=&quot;font-size: 14px;&quot;&gt;+id_trabajador: int&lt;/font&gt;&lt;/b&gt;&lt;br&gt;+dni&lt;br&gt;+nombre&lt;br&gt;+apellidos" style="align=left;strokeColor=none;fillColor=none;spacingLeft=4;fontSize=12;verticalAlign=top;resizable=0;rotatable=0;part=1;html=1;" vertex="1" parent="XE0a3KAdDkCExp548i4T-7">
          <mxGeometry y="50" width="165" height="80" as="geometry" />
        </mxCell>
        <mxCell id="XE0a3KAdDkCExp548i4T-14" value="Profesion" style="swimlane;childLayout=stackLayout;horizontal=1;startSize=50;horizontalStack=0;rounded=1;fontSize=14;fontStyle=0;strokeWidth=2;resizeParent=0;resizeLast=1;shadow=0;dashed=0;align=center;arcSize=4;whiteSpace=wrap;html=1;" vertex="1" parent="1">
          <mxGeometry x="655" y="90" width="175" height="100" as="geometry" />
        </mxCell>
        <mxCell id="XE0a3KAdDkCExp548i4T-15" value="&lt;font style=&quot;font-size: 14px;&quot;&gt;&lt;b&gt;+codigo_profesion: int&lt;/b&gt;&lt;/font&gt;&lt;br&gt;+nombre" style="align=left;strokeColor=none;fillColor=none;spacingLeft=4;fontSize=12;verticalAlign=top;resizable=0;rotatable=0;part=1;html=1;" vertex="1" parent="XE0a3KAdDkCExp548i4T-14">
          <mxGeometry y="50" width="175" height="50" as="geometry" />
        </mxCell>
        <mxCell id="XE0a3KAdDkCExp548i4T-16" value="Trabajar" style="shape=rhombus;perimeter=rhombusPerimeter;whiteSpace=wrap;html=1;align=center;" vertex="1" parent="1">
          <mxGeometry x="435" y="200" width="160" height="60" as="geometry" />
        </mxCell>
        <mxCell id="XE0a3KAdDkCExp548i4T-18" value="horas_trabajadas" style="ellipse;whiteSpace=wrap;html=1;align=center;" vertex="1" parent="1">
          <mxGeometry x="460" y="290" width="110" height="40" as="geometry" />
        </mxCell>
        <mxCell id="XE0a3KAdDkCExp548i4T-19" value="" style="endArrow=none;html=1;rounded=0;entryX=0.5;entryY=1;entryDx=0;entryDy=0;exitX=0.5;exitY=0;exitDx=0;exitDy=0;" edge="1" parent="1" source="XE0a3KAdDkCExp548i4T-18" target="XE0a3KAdDkCExp548i4T-16">
          <mxGeometry width="50" height="50" relative="1" as="geometry">
            <mxPoint x="325" y="310" as="sourcePoint" />
            <mxPoint x="375" y="260" as="targetPoint" />
          </mxGeometry>
        </mxCell>
        <mxCell id="XE0a3KAdDkCExp548i4T-26" value="" style="edgeStyle=entityRelationEdgeStyle;fontSize=12;html=1;endArrow=ERmandOne;startArrow=ERmandOne;rounded=0;exitX=1;exitY=0;exitDx=0;exitDy=0;entryX=0;entryY=0.5;entryDx=0;entryDy=0;" edge="1" parent="1" source="XE0a3KAdDkCExp548i4T-5" target="XE0a3KAdDkCExp548i4T-16">
          <mxGeometry width="100" height="100" relative="1" as="geometry">
            <mxPoint x="420" y="200" as="sourcePoint" />
            <mxPoint x="520" y="100" as="targetPoint" />
          </mxGeometry>
        </mxCell>
        <mxCell id="XE0a3KAdDkCExp548i4T-27" value="" style="edgeStyle=entityRelationEdgeStyle;fontSize=12;html=1;endArrow=ERoneToMany;rounded=0;exitX=0;exitY=0;exitDx=0;exitDy=0;entryX=1;entryY=0;entryDx=0;entryDy=0;" edge="1" parent="1" source="XE0a3KAdDkCExp548i4T-15" target="XE0a3KAdDkCExp548i4T-16">
          <mxGeometry width="100" height="100" relative="1" as="geometry">
            <mxPoint x="450" y="180" as="sourcePoint" />
            <mxPoint x="550" y="80" as="targetPoint" />
          </mxGeometry>
        </mxCell>
        <mxCell id="XE0a3KAdDkCExp548i4T-28" value="" style="edgeStyle=entityRelationEdgeStyle;fontSize=12;html=1;endArrow=ERoneToMany;rounded=0;exitX=0;exitY=0.25;exitDx=0;exitDy=0;entryX=1;entryY=1;entryDx=0;entryDy=0;" edge="1" parent="1" source="XE0a3KAdDkCExp548i4T-8" target="XE0a3KAdDkCExp548i4T-16">
          <mxGeometry width="100" height="100" relative="1" as="geometry">
            <mxPoint x="665" y="158" as="sourcePoint" />
            <mxPoint x="565" y="225" as="targetPoint" />
          </mxGeometry>
        </mxCell>
      </root>
    </mxGraphModel>
  </diagram>
</mxfile>
